# xmcd
#
# Track frame offsets:
#	150
#	16133
#	32125
#	51904
#	73915
#	80934
#	94313
#	112196
#	122266
#	125665
#	133321
#	146855
#	164146
#	189778
#
# Disc length: 2833 seconds
#
# Revision: 7
# Processed by: cddbd v1.5.2PL0 Copyright (c) Steve Scherf et al.
# Submitted via: EasyCDDAExtractor 12.0.1.1
#
DISCID=d90b0f0e
DTITLE=Simon and Garfunkel - Old Friends - Live On Stage (Disc-1)
DYEAR=2004
DGENRE=Folk-Rock
TTITLE0=Old Friends/Bookends
TTITLE1=A Hazy Shade of Winter
TTITLE2=I Am a Rock
TTITLE3=America
TTITLE4=At the Zoo
TTITLE5=Baby Driver
TTITLE6=Kathy's Song
TTITLE7=Tom and Jerry Story
TTITLE8=Hey, Schoolgirl
TTITLE9=The Everly Brothers Intro
TTITLE10=Bye Bye Love (With the Everly Brothers)
TTITLE11=Scarborogh Fair
TTITLE12=Homeward Bound
TTITLE13=The Sound of Silence
EXTD=
EXTT0=
EXTT1=
EXTT2=
EXTT3=
EXTT4=
EXTT5=
EXTT6=
EXTT7=
EXTT8=
EXTT9=
EXTT10=
EXTT11=
EXTT12=
EXTT13=
PLAYORDER=
